<?xml version="1.0" encoding="utf-8"?>
<!-- Generator: Adobe Illustrator 16.0.0, SVG Export Plug-In . SVG Version: 6.00 Build 0)  -->
<!DOCTYPE svg PUBLIC "-//W3C//DTD SVG 1.1//EN" "http://www.w3.org/Graphics/SVG/1.1/DTD/svg11.dtd">
<svg version="1.1" id="Layer_1" xmlns="http://www.w3.org/2000/svg" xmlns:xlink="http://www.w3.org/1999/xlink" x="0px" y="0px"
	 width="423.6px" height="275.333px" viewBox="0 0 423.6 275.333" enable-background="new 0 0 423.6 275.333" xml:space="preserve">
<image display="none" overflow="visible" opacity="0.5" width="1765" height="1280" xlink:href="carte-electorale.jpg"  transform="matrix(0.24 0 0 0.24 0 -13.3335)">
</image>
<rect opacity="0.5" fill="#D3D3E5" width="423.6" height="275.333"/>
<rect x="26.8" y="37.75" fill="none" stroke="#4F4B81" stroke-miterlimit="10" width="158.534" height="199.249"/>
<g>
	<text transform="matrix(1 0 0 1 72.167 11.4092)" fill="#373C6C" font-family="'MyriadPro-Regular'" font-size="7.1412">REMARQUE IMPORTANTE</text>
</g>
<text transform="matrix(1 0 0 1 22.6709 19.687)"><tspan x="0" y="0" opacity="0.5" fill="#473C9A" font-family="'MyriadPro-Regular'" font-size="7.4453">Les électeurs des communes de plus de 5 000 habitants</tspan><tspan x="0" y="8.935" opacity="0.5" fill="#473C9A" font-family="'MyriadPro-Regular'" font-size="7.4453">doivent présenter au momont du vote, un titre d’identité</tspan></text>
<polyline fill="none" stroke="#4F4B81" stroke-miterlimit="10" points="26.8,71.665 185.333,71.665 185.333,103.998 26.8,103.998 
	26.8,137.375 185.333,137.375 185.333,169.996 26.8,169.996 26.8,202.996 185.333,202.996 "/>
<line fill="none" stroke="#4F4B81" stroke-miterlimit="10" x1="106.066" y1="236.999" x2="106.066" y2="37.75"/>
<text transform="matrix(1 0 0 1 42.6675 51.2671)" opacity="0.5" fill="#46368E" font-family="'MyriadPro-Regular'" font-size="8.9332">SCRUTIN N° 1</text>
<text transform="matrix(1 0 0 1 42.6675 83.9331)" opacity="0.5" fill="#46368E" font-family="'MyriadPro-Regular'" font-size="8.9332">SCRUTIN N° 1</text>
<text transform="matrix(1 0 0 1 42.6675 117.2671)" opacity="0.5" fill="#46368E" font-family="'MyriadPro-Regular'" font-size="8.9332">SCRUTIN N° 1</text>
<text transform="matrix(1 0 0 1 42.6675 147.9341)" opacity="0.5" fill="#46368E" font-family="'MyriadPro-Regular'" font-size="8.9332">SCRUTIN N° 1</text>
<text transform="matrix(1 0 0 1 42.6675 179.9341)" opacity="0.5" fill="#46368E" font-family="'MyriadPro-Regular'" font-size="8.9332">SCRUTIN N° 1</text>
<text transform="matrix(1 0 0 1 39.3345 213.2671)" opacity="0.5" fill="#46368E" font-family="'MyriadPro-Regular'" font-size="8.9332">SCRUTIN N° 1</text>
<text transform="matrix(1 0 0 1 120.6675 51.2671)" opacity="0.5" fill="#46368E" font-family="'MyriadPro-Regular'" font-size="8.9332">SCRUTIN N° 1</text>
<text transform="matrix(1 0 0 1 120.6675 83.9331)" opacity="0.5" fill="#46368E" font-family="'MyriadPro-Regular'" font-size="8.9332">SCRUTIN N° 1</text>
<text transform="matrix(1 0 0 1 123.3345 117.2671)" opacity="0.5" fill="#46368E" font-family="'MyriadPro-Regular'" font-size="8.9332">SCRUTIN N° 1</text>
<text transform="matrix(1 0 0 1 120.6675 147.9331)" opacity="0.5" fill="#46368E" font-family="'MyriadPro-Regular'" font-size="8.9332">SCRUTIN N° 1</text>
<text transform="matrix(1 0 0 1 120.6675 179.9331)" opacity="0.5" fill="#46368E" font-family="'MyriadPro-Regular'" font-size="8.9332">SCRUTIN N° 1</text>
<text transform="matrix(1 0 0 1 120.6675 213.2671)" opacity="0.5" fill="#46368E" font-family="'MyriadPro-Regular'" font-size="8.9332">SCRUTIN N° 1</text>
<text transform="matrix(1 0 0 1 19.8716 251.5444)"><tspan x="0" y="0" opacity="0.5" fill="#4C4B94" font-family="'MyriadPro-Regular'" font-size="7.1514">La présente carte remplace la carte précédament délivrée,</tspan><tspan x="0" y="8.582" opacity="0.5" fill="#4C4B94" font-family="'MyriadPro-Regular'" font-size="7.1514">qui devra être détruite: elle doit être conservée par</tspan><tspan x="0" y="17.163" opacity="0.5" fill="#4C4B94" font-family="'MyriadPro-Regular'" font-size="7.1514">l’électeur jusqu’&amp; réception d’une nouvelle carte.</tspan></text>
<g opacity="0.7">
	<defs>
		<rect id="SVGID_1_" x="255.7" y="0.092" opacity="0.7" width="121.188" height="40.67"/>
	</defs>
	<clipPath id="SVGID_2_">
		<use xlink:href="#SVGID_1_"  overflow="visible"/>
	</clipPath>
	<rect x="254.559" y="-1.759" clip-path="url(#SVGID_2_)" fill="#FFFFFF" width="123.705" height="43.595"/>
	<path clip-path="url(#SVGID_2_)" fill="#1E4E9C" d="M291.86,25.361c-1.099,0.323-2.221,0.371-3.239,0.926
		c2.405-0.092,4.813,0.278,7.127,1.018c0.833,0.278,1.573,0.648,2.314,1.111c0.37,0.277,0.554,0.555,0.925,0.741
		c0.462,0.277,1.11,0.277,1.573,0.092c0.093,0,0.37,0,0.463,0c1.389-0.37,2.87-0.741,3.795-1.759c0,0.093,0.093,0.093,0.187,0.093
		c-0.279,0.74-0.279,1.573-0.833,2.221c0,0.092-0.094,0.278,0.092,0.37c0.093,0,0.093,0,0.185,0c-0.092,0-0.185,0-0.185,0.093
		c0,0.186,0.277,0,0.37,0.186c-0.462,0.092-0.926,0.185-1.203,0.555c0,0.092,0.185,0.092,0.277,0.092
		c-0.186,0.185-0.463,0.093-0.556,0.278c0,0,0.093,0.092,0.186,0.092c-0.093,0-0.186,0-0.186,0.093s0,0.187,0,0.278
		c-0.278,0-0.37,0.185-0.554,0.278c0.368,0.277,0.646,0,1.017,0c-1.017,0.37-1.851,0.926-2.869,1.203c-0.186,0,0,0.277-0.186,0.277
		c0.278,0.186,0.463-0.091,0.74-0.091c-1.295,0.741-2.591,1.388-3.979,2.221c0,0-0.186,0.185-0.186,0.37c-0.092,0-0.277,0-0.37,0
		c-0.185,0.092-0.093,0.37-0.277,0.555c0.463,0.279,1.018-0.37,1.296,0c0.093,0-0.186,0.093-0.37,0.093
		c-0.093,0-0.093,0.186-0.185,0.186c-0.094,0-0.186,0-0.278,0c-0.186,0.185-0.37,0.277-0.37,0.555c-0.186,0-0.37,0-0.463,0.186
		c2.036-0.279,4.164-0.093,6.108-1.111c1.481-0.741,2.869-1.759,4.072-3.054c0,0,0.093,0.091,0.093,0.185
		c-0.276,0.926-0.833,1.573-1.573,2.129c-0.555,0.278-0.925,0.741-1.388,0.926c-0.278,0.186-0.557,0.37-0.832,0.555
		c-3.426,1.203-7.498,0.647-10.461,2.962c0-0.093-0.092-0.093-0.186-0.093c-0.186,0.186-0.462,0.277-0.555,0.462
		c0,0.186,0.278,0.093,0.369,0.093c0.557-0.37,1.112-0.648,1.761-0.833c-0.741,0.37-1.481,0.925-2.223,1.11
		c-1.573,0.278-3.054,0.185-4.628,0c0.925-0.556,1.851-1.203,2.869-1.759c-0.277-0.185-0.555-0.185-0.834-0.185
		c-0.461,0.092-1.018-0.186-1.479,0c-1.389,0.648-3.239,0.463-3.98,1.944c-9.256,0.185-18.604,0-27.859,0
		c0.185-10.089,0-20.086,0.276-30.174c0.093-3.61-0.092-7.22-0.092-10.831c2.498-0.462,4.998-0.185,7.497-0.092
		c16.014,0,31.934-0.092,47.947,0c-1.112,0.555-2.407,1.019-3.241,2.037c-0.74,0.926-1.481,1.851-1.758,2.962
		c-1.204,0.74-1.944,1.85-2.592,2.961c-0.832,1.573-2.037,2.962-1.852,4.72c0.186,1.481,0.555,2.87,0.833,4.443
		c0.093,0.556,0.187,1.019,0.37,1.574c0.185,0.555,0,1.203,0.278,1.666c0.185,0.277,0.092,0.647,0.462,0.833c0,0.092,0,0.277,0,0.37
		c0.093,0.092,0.093,0.186,0.277,0.186c0,0.092,0,0.277,0,0.371c0.741,0.925,1.666,1.758,2.13,2.776
		c0.186,0.556-0.925,0.278-1.389,0.093c-0.926-0.462-1.48-1.203-2.222-1.851c0,0-0.093,0.093-0.093,0.186
		c0.372,0.647,1.759,1.48,1.019,1.943c-0.371,0.185-0.833-0.278-1.204,0.093c-0.091,0.185,0,0.371,0,0.556
		c-0.555-0.371-1.11-0.185-1.665-0.371c-0.37-0.093-0.463-0.833-0.927-0.833c-1.203-0.277-2.313-0.555-3.516-0.647
		c-1.666-0.185-3.24-0.463-4.907-0.185c-1.48,0.092-2.592,1.203-3.517,2.314c0,0.093,0,0.278,0,0.278
		c0.648,0.092,0.925-0.463,1.481-0.648c0.926-0.186,1.76-0.556,2.685-0.741c1.388-0.277,2.684-0.647,3.979-0.555
		c0.278,0,0.647-0.093,0.926,0C294.915,24.343,293.434,24.898,291.86,25.361z"/>
	<path clip-path="url(#SVGID_2_)" fill="#FFFFFF" d="M286.677,29.804c-0.285,0.07-0.556,0.278-0.462,0.462
		c0.277,0.37,0.833-0.093,1.295-0.093c-0.556,0.186-1.203,0.093-1.666,0.556c0.371,0.278,0.741,0.093,1.11,0.093
		c0,0.185,0.186,0.185,0.278,0.277c-0.463,0.185-0.833,0.555-0.926,0.833c-0.186,0.463-0.648,0.649-0.925,1.019
		c0,0.093,0,0.185,0,0.277c-0.926,0.833-1.944,1.389-2.687,2.407c0.094,0,0.094,0.093,0.094,0.186
		c-0.186,0.278-0.556,0.37-0.647,0.647c0,0.093,0,0.185,0.092,0.185c1.111-0.37,1.943-1.203,2.963-1.573
		c0.74-0.185,1.296-0.648,1.943-0.833c0.462-0.093,1.019-0.279,1.481-0.371c0,0.092,0,0.185,0.091,0.185c0.279,0,0.464,0,0.742,0
		c-0.093,0.186-0.463,0.093-0.371,0.186c0.278,0.277,0.834,0.185,1.204,0c0.277-0.186,0.557-0.186,0.925-0.186
		c0.093,0,0.093-0.185,0.093-0.277c0.279,0.092,0.462,0.092,0.741,0.092c2.222-0.462,4.35-0.925,6.387-1.944
		c-2.408-1.85-5.462-2.499-8.331-3.332c0.277,0,0.555,0.278,0.833,0c-0.463-0.371-1.018-0.185-1.48-0.462
		c0.092,0,0.277,0.092,0.369-0.093c-0.74-0.37-1.481-0.37-2.222-0.555c0.464-0.092,0.74-0.462,0.74-0.925
		c0-0.093-0.184-0.093-0.276-0.093c-1.111,0.556-1.851,1.573-2.313,2.777c0.647,0.371,1.388,0.092,2.035,0.185
		C287.51,29.711,287.048,29.711,286.677,29.804z"/>
	<path clip-path="url(#SVGID_2_)" fill="#FFFFFF" d="M282.882,26.194c-0.944,1-1.944,1.944-3.146,2.591
		c-0.834,1.667-1.76,3.147-2.963,4.722c0,0.091,0.092,0.185,0.092,0.185c2.223-2.499,4.258-4.628,7.128-6.387
		c0.184-0.092-0.278,0.278,0.092,0.185c1.203-0.277,1.573-1.481,2.13-2.407c0.739-1.203,2.036-1.666,2.961-2.684
		c0,0.092,0,0.185-0.093,0.278c0.093,0.093,0.186,0.093,0.278,0.093c0.37-0.278,0.833-0.186,1.11-0.556
		c-0.74-0.277-1.666-0.37-2.406-0.092C286.121,23.047,284.456,24.528,282.882,26.194z"/>
	<path clip-path="url(#SVGID_2_)" fill="#FFFFFF" d="M284.271,27.953c0.083-0.166,0.186-0.186,0.277-0.37
		c0-0.093,0-0.186-0.092-0.186c-0.371,0.092-0.648,0.463-0.741,0.833c0,0.093,0.093,0.093,0.186,0.093
		C284.085,28.23,284.177,28.138,284.271,27.953z"/>
	<path clip-path="url(#SVGID_2_)" fill="#FFFFFF" d="M291.676,34.987c-0.371,0.185-1.02,0.185-1.111,0.647
		c-0.093,0.186,0.279,0.093,0.462,0.093c0.649-0.278,1.39,0,1.944-0.556c-0.185-0.185-0.462-0.092-0.647-0.371
		C292.138,34.709,291.86,34.895,291.676,34.987z"/>
	<path clip-path="url(#SVGID_2_)" fill="#1E4E9C" d="M301.765,39.985c0.571-0.126,1.109-0.462,1.666-0.647c0,0.093,0,0.093,0,0.185
		c1.388-0.555,2.406-1.759,3.794-2.222c0.094,0,0.277,0.185,0.463,0.092c0.833-0.741,1.76-1.573,2.963-1.388
		c0,0.092,0,0.185,0.092,0.185c0.093,0,0.186,0,0.186-0.092c-0.37,0.278-0.739,0.555-1.111,0.833c-0.093,0.091,0,0.185,0.093,0.185
		c0.463-0.185,0.741-0.555,1.204-0.74c-0.092,0.092-0.092,0.277-0.186,0.37c-1.759,1.296-3.055,2.777-4.442,4.351
		c-0.927,0-1.944,0-2.87,0c0-0.093,0-0.186-0.093-0.186c-3.24,0.277-6.387,0.186-9.626,0.186c1.852-0.278,3.702-0.833,5.553-1.019
		C300.19,40.078,300.931,40.171,301.765,39.985z"/>
	<path clip-path="url(#SVGID_2_)" fill="#EA2D2E" d="M338.232,35.265c0.224-0.669,0.463-1.388,0.093-2.037
		c-0.555-0.833,0.556-1.11,0.927-1.666c0.276-0.462-0.186-0.74-0.279-1.203c-0.092-0.186-0.462-0.093-0.647-0.37
		c0.647-0.278,1.666-0.833,1.203-1.667c-0.276-0.462-0.74-1.203-0.186-1.666c0.648-0.371,1.667-0.278,1.944-0.926
		c0.463-1.111-0.555-2.037-1.111-2.962c-0.276-0.556-0.647-0.926-1.018-1.481c-0.37-0.648-0.833-1.204-1.018-1.943
		c-0.278-0.741,0.092-1.389,0.092-2.129c0.093-1.389-0.277-2.777-0.647-4.166c-0.277-0.648-0.37-1.388-0.647-2.036
		c-0.093-0.37-0.186-0.74-0.463-1.111c-0.093-0.186-0.093-0.463,0-0.647c0.37-0.278,0.74-0.556,1.11-0.926
		c0.277-0.463,0.093-1.11-0.37-1.388c-0.647-0.278-0.555,0.648-1.019,0.833c-0.093,0-0.185,0-0.277,0
		c-0.092-0.277,0.093-0.37,0.277-0.555c0-0.093,0-0.278-0.093-0.278c-0.369,0-0.74-0.093-0.833-0.278
		c-0.925-1.296-2.221-1.944-3.609-2.499c0.37,0.092,0.741,0.185,1.111,0.185c0.647,0.092,1.388,0.092,1.943-0.185
		c0.463-0.185,0.555-0.926,0.74-1.389c0.186-0.37-0.093-0.926-0.277-1.203c-0.463-0.741-1.204-1.204-1.944-1.574
		c14.625,0,29.25,0,43.873,0c0.094,13.7-0.092,27.398-0.185,41.098c-17.31,0.277-34.616,0-51.927,0
		c0.557-1.852,1.574-3.61,3.241-4.813c0.369-0.185,0.832-0.277,1.296-0.37c1.572,0,3.146,0.463,4.72,0.648
		c0.184,0,0.37,0.092,0.555,0.185c0.556,0.093,1.204,0.093,1.76-0.093C337.215,36.468,337.955,36.098,338.232,35.265z"/>
	<path clip-path="url(#SVGID_2_)" fill="#888F96" d="M334.716,17.03c-0.547-0.137-1.02,0-1.574,0
		c-0.739,0.186-1.388,0.278-2.036,0.556c0.556-0.37,1.111-0.74,1.759-0.925c0.462-0.093,0.925-0.37,1.389-0.37
		c0.555-0.093,1.11-0.278,1.574-0.093c0.462,0.186,1.202,0.186,1.295,0.463c0.186,0.555-0.277,1.11-0.833,1.481
		c-0.093,0.185,0.278,0.277,0.278,0.463c-0.093,0.185-0.371,0.277-0.556,0.277c-0.185,0.093-0.37,0.371-0.556,0.556
		c0.186,0,0,0.278,0.186,0.278c-0.371,0.462,0.186,1.388-0.371,1.573c-0.647,0.185-1.388,0.185-2.129,0
		c0.371-0.093,0.833,0.092,1.111-0.278c0-0.093,0-0.277,0-0.37s-0.093-0.093-0.186-0.093c-0.093,0.093-0.185,0.093-0.185,0.093
		c0-0.186-0.187-0.37-0.278-0.37c-0.555,0.092-1.018-0.186-1.388-0.555c0.276-0.093,0.556-0.186,0.833-0.093
		c0.276,0,0.185-0.463,0.463-0.648c0.092,0,0.184,0,0.276,0c0.557-0.741,1.667-0.925,1.853-1.666
		C335.642,17.123,335.086,17.123,334.716,17.03z"/>
</g>
<rect x="211.8" y="40.762" opacity="0.7" fill="#FFFFFF" width="212.138" height="47.904"/>
<g id="Layer_2">
	<path fill="#231F20" d="M257.095,76.772c-0.52,0-0.814-0.07-1.108-0.266c-0.462-0.31-0.954-1.151-1.235-1.627
		c-0.476-0.828-1.011-1.712-1.515-2.456c-0.085,0.015-0.154,0.015-0.211,0.015c-0.139,0-0.252-0.015-0.393-0.015v0.744
		c0,0.378,0.015,0.756,0.015,1.136c0.013,0.758,0.029,1.081,0.141,1.375c0.141,0.364,0.392,0.546,0.856,0.589v0.392l-0.324-0.013
		c-0.364-0.014-0.869,0-1.53,0c-0.644,0-1.149-0.014-1.515,0l-0.337,0.013v-0.392c0.351-0.027,0.519-0.098,0.689-0.281
		c0.153-0.182,0.252-0.435,0.279-0.758c0.042-0.42,0.056-0.674,0.056-2.062v-2.358c0-1.71-0.056-2.132-0.153-2.524
		c-0.098-0.38-0.393-0.534-0.871-0.59v-0.392c0.282,0.028,0.563,0.014,0.843,0.014c0.729,0,0.953,0,1.824-0.042
		c0.757-0.028,1.192-0.042,1.529-0.042c0.953,0,1.529,0.141,2.005,0.477c0.534,0.379,0.886,1.109,0.886,1.839
		c0,1.15-0.759,2.09-2.049,2.567c0.532,0.673,0.953,1.348,1.445,2.119c0.447,0.714,0.896,1.333,1.248,1.682
		c0.196,0.212,0.323,0.281,0.588,0.352v0.392C257.894,76.743,257.529,76.772,257.095,76.772z M253.488,67.99
		c-0.28,0-0.532,0.042-0.841,0.112c0,0.828-0.015,2.329-0.015,3.493c0.155,0.028,0.436,0.042,0.617,0.042
		c1.15,0,1.922-0.716,1.922-1.81C255.172,68.762,254.457,67.99,253.488,67.99z"/>
	<path fill="#231F20" d="M261.708,68.176l-0.545-0.325l1.147-1.691l1.334,0.244L261.708,68.176z M264.293,76.486
		c-0.104,0.172-0.22,0.208-0.857,0.208c-0.395,0-0.776-0.022-1.17-0.035c-0.558-0.01-1.114-0.034-1.67-0.034
		c-0.557,0-1.113,0.012-1.669,0.034v-0.324c0.522-0.046,0.753-0.346,0.799-0.857c0.035-0.349,0.035-0.719,0.035-1.32v-3.282
		c0-0.614-0.035-0.892-0.127-1.135c-0.104-0.303-0.313-0.44-0.707-0.487V68.93h5.426c0,0.336-0.013,0.683-0.013,1.02
		c0,0.278-0.012,0.545,0.013,0.823h-0.417c-0.083-0.893-0.466-1.136-1.845-1.136c-0.255,0-0.59,0.012-0.87,0.023
		c-0.022,0.452-0.034,0.603-0.034,1.275v1.344c0.174,0.011,0.314,0.011,0.521,0.011c1.208,0,1.577-0.174,1.647-0.799h0.416
		c-0.022,0.186-0.022,0.569-0.022,1.148c0,0.591,0.011,0.938,0.022,1.123h-0.416c-0.035-0.66-0.349-0.822-1.542-0.822
		c-0.209,0-0.418,0.011-0.627,0.011c0,0.73,0.012,1.461,0.012,2.19c0,0.487,0.082,0.649,0.358,0.719
		c0.175,0.046,0.443,0.059,0.801,0.059c1.252,0,1.692-0.279,1.958-1.229l0.453,0.093C264.606,75.594,264.42,76.266,264.293,76.486z"
		/>
	<path fill="#231F20" d="M269.126,73.217c-0.116,0-0.173,0-0.325-0.012l-0.254-0.59c1.089-0.07,1.691-0.603,1.691-1.484
		c0-0.927-0.637-1.588-1.518-1.588c-0.139,0-0.256,0.013-0.439,0.047c0,0.719-0.023,1.438-0.023,2.156v2.028
		c0,1.517,0.011,1.772,0.127,2.075c0.104,0.302,0.314,0.454,0.707,0.486v0.324l-0.278-0.01c-0.301-0.012-0.719-0.012-1.274-0.012
		c-0.545,0-0.976,0-1.264,0.012l-0.278,0.01v-0.324c0.522-0.046,0.754-0.346,0.799-0.857c0.035-0.349,0.035-0.557,0.035-1.704
		v-2.898c0-0.614-0.035-0.892-0.127-1.135c-0.104-0.303-0.313-0.44-0.707-0.487V68.93c0.14,0.011,0.035,0.011,0.533,0.011
		c0.197,0,0.475,0,0.845-0.011c0.593-0.023,1.184-0.059,1.774-0.059c1.646,0,2.631,0.812,2.631,2.157
		C271.78,72.29,270.656,73.217,269.126,73.217z"/>
	<path fill="#231F20" d="M279.659,69.509c-0.127,0.173-0.186,0.406-0.208,0.869c-0.023,0.498-0.035,0.88-0.035,1.6
		c0,0.267,0.012,1.067,0.012,1.866c0,0.811-0.128,1.297-0.463,1.784c-0.534,0.776-1.414,1.171-2.574,1.171
		c-0.73,0-1.285-0.141-1.808-0.488c-0.812-0.521-1.124-1.205-1.124-2.433c0-1.251,0.022-1.796,0.022-2.203
		c0-0.59,0.034-1.206-0.068-1.785c-0.072-0.417-0.29-0.59-0.777-0.637V68.93l0.266,0.011c0.304,0.012,0.731,0.012,1.288,0.012
		c0.556,0,0.985,0,1.286-0.012l0.267-0.011v0.325c-0.358,0.046-0.533,0.139-0.648,0.335c-0.104,0.174-0.152,0.406-0.163,0.916
		c-0.022,0.729-0.034,1.448-0.034,2.179c0,1.994,0.045,2.376,0.405,2.793c0.278,0.325,0.754,0.544,1.309,0.544
		c0.778,0,1.529-0.394,1.763-1.169c0.151-0.498,0.175-0.858,0.175-2.168v-1.148c0-1.32-0.035-1.726-0.164-1.924
		c-0.127-0.208-0.3-0.324-0.603-0.358V68.93c0.464,0.023,0.627,0.023,1.207,0.023c0.59,0,0.752,0,1.216-0.023v0.325
		C279.949,69.289,279.786,69.358,279.659,69.509z"/>
	<path fill="#231F20" d="M286.787,76.116c-0.545,0.417-1.16,0.556-2.341,0.556c-0.628,0-1.264-0.046-1.891-0.046
		c-0.255,0-0.729,0-1.054,0.024l-0.141,0.01v-0.324c0.546-0.046,0.754-0.325,0.802-0.857c0.033-0.349,0.046-0.557,0.046-1.704v-2.19
		c0-1.078-0.013-1.542-0.127-1.842c-0.117-0.303-0.325-0.44-0.721-0.487V68.93c0.534,0.023,0.848,0.023,1.589,0.023
		c0.672,0,1.68-0.035,2.353-0.035c1.066,0,2.041,0.511,2.041,1.716c0,0.893-0.557,1.495-1.657,1.772
		c1.228,0.245,1.876,0.951,1.876,2.099C287.563,75.2,287.309,75.722,286.787,76.116z M284.262,69.532
		c-0.209,0-0.418,0.023-0.628,0.023c-0.012,0.753-0.034,2.051-0.046,2.537c0.126,0.013,0.29,0.024,0.511,0.024
		c1.135,0,1.784-0.475,1.784-1.309C285.883,70.007,285.281,69.532,284.262,69.532z M284.294,72.766
		c-0.195,0-0.404,0.011-0.706,0.034c-0.011,0.313-0.011,0.372-0.011,0.905v0.684c0,0.648,0.022,0.997,0.104,1.228
		c0.092,0.29,0.371,0.429,0.855,0.429c0.986,0,1.543-0.544,1.543-1.517C286.08,73.449,285.384,72.766,284.294,72.766z"/>
	<path fill="#231F20" d="M294.108,76.498c-0.104,0.161-0.243,0.196-0.821,0.196c-0.29,0-0.592-0.01-0.88-0.022
		c-0.72-0.022-1.369-0.046-2.157-0.046c-0.592,0-0.984,0.012-1.354,0.034v-0.324c0.288-0.023,0.439-0.081,0.565-0.23
		c0.209-0.245,0.268-0.545,0.268-1.393c0-0.578,0.012-1.042,0.012-1.645v-1.24c0-1.565-0.012-1.773-0.127-2.086
		c-0.105-0.303-0.324-0.44-0.718-0.487V68.93l0.288,0.011c0.313,0.012,0.74,0.012,1.32,0.012c0.569,0,1.01,0,1.311-0.012
		l0.289-0.011v0.325c-0.59,0-0.846,0.312-0.915,0.87c-0.023,0.196-0.035,0.382-0.035,1.703v1.935c0,1.612,0.012,1.811,0.162,1.972
		c0.128,0.126,0.372,0.185,0.87,0.185c0.639,0,0.984-0.07,1.274-0.233c0.325-0.173,0.569-0.52,0.684-1.007l0.44,0.115
		C294.457,75.466,294.238,76.302,294.108,76.498z"/>
	<path fill="#231F20" d="M298.141,76.649c-0.289-0.012-0.718-0.012-1.265-0.012c-0.555,0-0.973,0-1.273,0.012l-0.278,0.01v-0.324
		c0.544-0.046,0.753-0.325,0.801-0.857c0.033-0.349,0.047-0.557,0.047-1.704v-1.947c0-0.301-0.014-0.615-0.014-0.951
		c0-0.614-0.023-0.892-0.115-1.135c-0.104-0.303-0.325-0.44-0.719-0.487V68.93l0.278,0.011c0.301,0.012,0.719,0.012,1.273,0.012
		c0.547,0,0.976,0,1.265-0.012l0.278-0.011v0.325c-0.497,0.035-0.752,0.347-0.799,0.87c-0.035,0.335-0.035,0.659-0.035,1.703v1.947
		c0,1.517,0.011,1.772,0.127,2.075c0.104,0.302,0.313,0.454,0.707,0.486v0.324L298.141,76.649z"/>
	<path fill="#231F20" d="M308.977,78.747c-0.905,0-1.868-0.279-2.784-0.789c-0.52-0.29-1.25-0.789-1.783-1.229
		c-0.396,0.059-0.545,0.071-0.916,0.071c-2.343,0-3.895-1.53-3.895-3.837c0-2.468,1.682-4.172,4.139-4.172
		c2.386,0,3.976,1.53,3.976,3.825c0,1.634-0.835,3.082-2.156,3.755c0.417,0.208,0.836,0.44,1.24,0.684
		c1.182,0.719,1.993,1.021,2.758,1.021c0.475,0,0.869-0.104,1.332-0.336l0.151,0.405C310.472,78.539,309.763,78.747,308.977,78.747z
		 M303.504,69.579c-1.413,0-2.421,1.182-2.421,2.839c0,2.018,1.192,3.604,2.711,3.604c1.426,0,2.436-1.205,2.436-2.885
		C306.229,71.143,305.033,69.579,303.504,69.579z"/>
	<path fill="#231F20" d="M315.743,69.509c-0.128,0.173-0.185,0.406-0.21,0.869c-0.022,0.498-0.032,0.88-0.032,1.6
		c0,0.267,0.01,1.067,0.01,1.866c0,0.811-0.127,1.297-0.463,1.784c-0.534,0.776-1.415,1.171-2.574,1.171
		c-0.729,0-1.287-0.141-1.807-0.488c-0.813-0.521-1.126-1.205-1.126-2.433c0-1.251,0.024-1.796,0.024-2.203
		c0-0.59,0.035-1.206-0.068-1.785c-0.07-0.417-0.29-0.59-0.777-0.637V68.93l0.267,0.011c0.301,0.012,0.731,0.012,1.285,0.012
		c0.558,0,0.986,0,1.287-0.012l0.267-0.011v0.325c-0.359,0.046-0.534,0.139-0.648,0.335c-0.104,0.174-0.15,0.406-0.163,0.916
		c-0.022,0.729-0.034,1.448-0.034,2.179c0,1.994,0.047,2.376,0.405,2.793c0.277,0.325,0.753,0.544,1.311,0.544
		c0.775,0,1.529-0.394,1.761-1.169c0.152-0.498,0.174-0.858,0.174-2.168v-1.148c0-1.32-0.034-1.726-0.162-1.924
		c-0.126-0.208-0.3-0.324-0.604-0.358V68.93c0.465,0.023,0.627,0.023,1.205,0.023c0.594,0,0.756,0,1.219-0.023v0.325
		C316.032,69.289,315.871,69.358,315.743,69.509z"/>
	<path fill="#231F20" d="M322.813,76.486c-0.104,0.172-0.22,0.208-0.858,0.208c-0.395,0-0.776-0.022-1.17-0.035
		c-0.558-0.01-1.112-0.034-1.669-0.034c-0.558,0-1.113,0.012-1.67,0.034v-0.324c0.522-0.046,0.754-0.346,0.799-0.857
		c0.037-0.349,0.037-0.719,0.037-1.32v-3.282c0-0.614-0.037-0.892-0.129-1.135c-0.104-0.303-0.314-0.44-0.707-0.487V68.93h5.424
		c0,0.336-0.011,0.683-0.011,1.02c0,0.278-0.012,0.545,0.011,0.823h-0.416c-0.082-0.893-0.465-1.136-1.843-1.136
		c-0.256,0-0.593,0.012-0.869,0.023c-0.023,0.452-0.034,0.603-0.034,1.275v1.344c0.174,0.011,0.311,0.011,0.52,0.011
		c1.206,0,1.577-0.174,1.646-0.799h0.418c-0.024,0.186-0.024,0.569-0.024,1.148c0,0.591,0.013,0.938,0.024,1.123h-0.418
		c-0.034-0.66-0.347-0.822-1.542-0.822c-0.208,0-0.418,0.011-0.624,0.011c0,0.73,0.011,1.461,0.011,2.19
		c0,0.487,0.081,0.649,0.359,0.719c0.172,0.046,0.441,0.059,0.8,0.059c1.251,0,1.69-0.279,1.959-1.229l0.451,0.093
		C323.126,75.594,322.938,76.266,322.813,76.486z"/>
	<path fill="#231F20" d="M333.535,69.561c-0.015-1.011-0.604-1.402-2.188-1.402c-0.323,0-0.632,0.013-0.983,0.042
		c-0.028,0.969-0.028,1.642-0.028,3.17c0.336,0.014,0.507,0.028,0.744,0.028c1.305,0,1.698-0.225,1.769-0.982h0.504
		c0,0.393-0.028,0.801-0.028,1.193c0,0.519,0.028,1.051,0.028,1.569h-0.504c-0.099-0.84-0.421-1.007-1.894-1.007
		c-0.255,0-0.351,0-0.619,0.013v1.571c0,0.311,0,0.646,0.017,1.012c0.026,0.771,0.082,1.443,0.995,1.5v0.392l-0.337-0.013
		c-0.35-0.014-0.87-0.014-1.53-0.014c-0.674,0-1.178,0-1.543,0.014l-0.336,0.013v-0.392c0.631-0.057,0.911-0.42,0.968-1.039
		c0.042-0.42,0.042-0.674,0.042-2.062v-3.509c0-0.743-0.042-1.079-0.155-1.373c-0.126-0.365-0.378-0.534-0.854-0.59v-0.392h6.453
		c-0.027,0.266-0.027,0.716-0.027,1.306c0,0.561,0,0.644,0.027,0.953H333.535z"/>
	<path fill="#231F20" d="M341.294,76.752c-0.429,0-0.672-0.058-0.915-0.219c-0.384-0.254-0.789-0.95-1.021-1.345
		c-0.395-0.684-0.835-1.414-1.252-2.028c-0.069,0.012-0.128,0.012-0.174,0.012c-0.116,0-0.208-0.012-0.325-0.012v0.614
		c0,0.313,0.013,0.626,0.013,0.938c0.012,0.627,0.022,0.894,0.116,1.137c0.114,0.302,0.323,0.454,0.706,0.486v0.324l-0.267-0.01
		c-0.302-0.012-0.719,0-1.264,0c-0.531,0-0.949-0.012-1.251,0l-0.277,0.01v-0.324c0.288-0.023,0.428-0.081,0.567-0.23
		c0.126-0.151,0.209-0.36,0.23-0.626c0.035-0.349,0.047-0.557,0.047-1.704v-1.947c0-1.413-0.047-1.762-0.127-2.086
		c-0.081-0.313-0.325-0.44-0.718-0.487V68.93c0.231,0.023,0.463,0.011,0.693,0.011c0.604,0,0.789,0,1.509-0.035
		c0.626-0.022,0.984-0.035,1.263-0.035c0.786,0,1.263,0.116,1.656,0.395c0.44,0.313,0.731,0.915,0.731,1.517
		c0,0.952-0.626,1.727-1.692,2.122c0.441,0.558,0.787,1.112,1.193,1.751c0.371,0.591,0.743,1.101,1.031,1.39
		c0.162,0.174,0.267,0.233,0.485,0.29v0.324C341.955,76.729,341.652,76.752,341.294,76.752z M338.316,69.498
		c-0.233,0-0.442,0.035-0.696,0.092c0,0.684-0.013,1.925-0.013,2.887c0.129,0.022,0.36,0.033,0.51,0.033
		c0.951,0,1.589-0.589,1.589-1.494C339.706,70.135,339.115,69.498,338.316,69.498z"/>
	<path fill="#231F20" d="M349.657,76.649c-0.288-0.012-0.706-0.012-1.239-0.012c-0.544,0-0.962,0-1.251,0.012l-0.268,0.01v-0.324
		c0.372-0.023,0.591-0.219,0.591-0.544c0-0.115-0.034-0.278-0.15-0.625c-0.138-0.43-0.232-0.719-0.371-1.112h-2.226l-0.23,0.671
		c-0.174,0.521-0.268,0.904-0.268,1.101c0,0.335,0.151,0.486,0.521,0.509v0.324c-0.44-0.01-0.603-0.022-1.159-0.022
		c-0.545,0-0.706,0.012-1.147,0.022v-0.324c0.174-0.023,0.232-0.046,0.361-0.162c0.218-0.197,0.44-0.601,0.786-1.483l1.102-2.805
		c0.302-0.754,0.753-1.97,1.067-2.956h0.787c0.104,0.359,0.348,0.927,0.51,1.344l1.634,4.185c0.279,0.707,0.477,1.124,0.627,1.39
		c0.162,0.279,0.323,0.417,0.602,0.486v0.324L349.657,76.649z M345.902,70.969c-0.3,0.788-0.718,1.808-0.892,2.376h1.716
		L345.902,70.969z"/>
	<path fill="#231F20" d="M357.908,69.602c-0.128,0.209-0.15,0.405-0.175,1.009c-0.035,1.043-0.046,2.666-0.046,3.443v1.772
		c0,0.266,0.035,0.672,0.035,0.833h-0.788c-0.754-0.983-2.318-2.897-2.318-2.897c-0.187-0.231-1.634-2.016-2.364-2.908
		c0,0.244-0.012,0.092-0.012,0.846v0.754c0,0.87,0.012,1.727,0.047,2.596c0.022,0.485,0.068,0.73,0.186,0.95
		c0.116,0.232,0.29,0.325,0.626,0.336v0.324c-0.405-0.022-0.823-0.022-1.229-0.022c-0.417,0-0.822,0-1.24,0.022v-0.324
		c0.766-0.023,0.788-0.66,0.811-1.263c0.013-0.487,0.024-0.892,0.024-1.633v-2.447c0-0.96-0.047-1.193-0.221-1.449
		c-0.115-0.185-0.267-0.254-0.614-0.289V68.93c0.383,0.023,0.522,0.023,1.011,0.023c0.475,0,0.612,0,0.994-0.023
		c0.14,0.253,0.36,0.486,1.159,1.46c1.136,1.38,2.155,2.55,3.119,3.755v-2.527c0-1.158-0.024-1.448-0.081-1.749
		c-0.082-0.371-0.303-0.557-0.731-0.614V68.93c0.475,0.023,0.639,0.023,1.229,0.023c0.591,0,0.754,0,1.229-0.023v0.325
		C358.244,69.266,358.071,69.324,357.908,69.602z"/>
	<path fill="#231F20" d="M365.996,76.382c-0.754,0.302-1.414,0.418-2.329,0.418l-0.104,0.463c0.057-0.012,0.174,0,0.22,0
		c0.439,0,0.73,0.313,0.73,0.696c0,0.626-0.499,1.066-1.286,1.066c-0.233,0-0.44-0.046-0.696-0.15l0.162-0.453
		c0.151,0.059,0.291,0.092,0.418,0.092c0.324,0,0.544-0.162,0.544-0.451c0-0.231-0.113-0.372-0.29-0.372
		c-0.091,0-0.173,0.035-0.254,0.092l-0.256-0.069l0.232-0.938c-1.02-0.093-1.761-0.43-2.387-1.079
		c-0.72-0.729-1.102-1.726-1.102-2.897c0-2.503,1.611-4.009,4.266-4.009c0.799,0,1.574,0.116,2.248,0.336
		c-0.023,0.267-0.023,0.533-0.023,0.788c0,0.196,0.011,0.614,0.023,0.88h-0.452c-0.187-0.823-0.847-1.263-1.901-1.263
		c-1.634,0-2.631,1.089-2.631,2.898c0,2.085,1.172,3.604,2.781,3.604c0.975,0,1.635-0.488,1.9-1.415l0.441,0.092
		C366.146,75.107,366.043,75.768,365.996,76.382z"/>
	<path fill="#231F20" d="M374.037,76.649c-0.289-0.012-0.706-0.012-1.239-0.012c-0.544,0-0.961,0-1.251,0.012l-0.268,0.01v-0.324
		c0.372-0.023,0.591-0.219,0.591-0.544c0-0.115-0.033-0.278-0.151-0.625c-0.138-0.43-0.23-0.719-0.372-1.112h-2.224l-0.23,0.671
		c-0.175,0.521-0.267,0.904-0.267,1.101c0,0.335,0.149,0.486,0.521,0.509v0.324c-0.44-0.01-0.603-0.022-1.158-0.022
		c-0.546,0-0.707,0.012-1.148,0.022v-0.324c0.174-0.023,0.232-0.046,0.359-0.162c0.22-0.197,0.44-0.601,0.789-1.483l1.101-2.805
		c0.302-0.754,0.753-1.97,1.067-2.956h0.786c0.104,0.359,0.349,0.927,0.51,1.344l1.636,4.185c0.277,0.707,0.475,1.124,0.625,1.39
		c0.162,0.279,0.324,0.417,0.603,0.486v0.324L374.037,76.649z M370.282,70.969c-0.3,0.788-0.719,1.808-0.892,2.376h1.716
		L370.282,70.969z"/>
	<path fill="#231F20" d="M377.824,76.649c-0.289-0.012-0.717-0.012-1.263-0.012c-0.556,0-0.974,0-1.274,0.012l-0.278,0.01v-0.324
		c0.545-0.046,0.754-0.325,0.8-0.857c0.035-0.349,0.045-0.557,0.045-1.704v-1.947c0-0.301-0.01-0.615-0.01-0.951
		c0-0.614-0.024-0.892-0.117-1.135c-0.104-0.303-0.322-0.44-0.718-0.487V68.93l0.278,0.011c0.301,0.012,0.719,0.012,1.274,0.012
		c0.546,0,0.974,0,1.263-0.012l0.279-0.011v0.325c-0.498,0.035-0.754,0.347-0.8,0.87c-0.035,0.335-0.035,0.659-0.035,1.703v1.947
		c0,1.517,0.013,1.772,0.128,2.075c0.104,0.302,0.313,0.454,0.707,0.486v0.324L377.824,76.649z"/>
	<path fill="#231F20" d="M381.428,76.8c-0.673,0-1.159-0.093-1.947-0.396c-0.035-0.439-0.116-1.113-0.208-1.668l0.438-0.069
		c0.278,0.938,0.894,1.425,1.785,1.425c0.824,0,1.381-0.428,1.381-1.077c0-0.522-0.36-0.881-0.882-1.206l-1.218-0.777
		c-0.833-0.534-1.32-1.09-1.32-2.109c0-1.298,0.984-2.133,2.516-2.133c0.741,0,1.355,0.139,1.9,0.417
		c-0.013,0.278-0.013,0.371-0.013,0.731c0,0.417,0,0.532,0.013,0.857h-0.441c-0.161-0.834-0.683-1.298-1.481-1.298
		c-0.72,0-1.241,0.452-1.241,1.089c0,0.556,0.383,0.928,0.997,1.322l0.985,0.637c0.939,0.615,1.472,1.206,1.472,2.133
		C384.163,75.941,383.052,76.8,381.428,76.8z"/>
	<path fill="#231F20" d="M390.747,76.486c-0.105,0.172-0.223,0.208-0.859,0.208c-0.394,0-0.776-0.022-1.17-0.035
		c-0.557-0.01-1.114-0.034-1.668-0.034c-0.557,0-1.115,0.012-1.67,0.034v-0.324c0.522-0.046,0.754-0.346,0.799-0.857
		c0.037-0.349,0.037-0.719,0.037-1.32v-3.282c0-0.614-0.037-0.892-0.129-1.135c-0.104-0.303-0.312-0.44-0.707-0.487V68.93h5.423
		c0,0.336-0.01,0.683-0.01,1.02c0,0.278-0.013,0.545,0.01,0.823h-0.416c-0.081-0.893-0.463-1.136-1.842-1.136
		c-0.256,0-0.593,0.012-0.871,0.023c-0.022,0.452-0.035,0.603-0.035,1.275v1.344c0.177,0.011,0.313,0.011,0.522,0.011
		c1.205,0,1.577-0.174,1.646-0.799h0.418c-0.024,0.186-0.024,0.569-0.024,1.148c0,0.591,0.012,0.938,0.024,1.123h-0.418
		c-0.035-0.66-0.348-0.822-1.543-0.822c-0.208,0-0.417,0.011-0.626,0.011c0,0.73,0.013,1.461,0.013,2.19
		c0,0.487,0.082,0.649,0.358,0.719c0.174,0.046,0.441,0.059,0.801,0.059c1.252,0,1.692-0.279,1.958-1.229l0.452,0.093
		C391.059,75.594,390.873,76.266,390.747,76.486z"/>
	<path fill="#231F20" d="M253.911,56.822c-0.103,0.136-0.271,0.181-0.677,0.181c-0.554,0-1.096-0.034-1.647-0.045
		c-0.475-0.012-0.834-0.022-1.084-0.022c-0.34,0-1.162,0.011-1.399,0.022l-0.158,0.011l0.046-0.238
		c0.338-0.033,0.542-0.134,0.7-0.348c0.181-0.227,0.293-0.542,0.449-1.175c0.148-0.62,0.216-0.992,0.453-2.155l0.181-0.892
		c0.181-0.902,0.248-1.433,0.248-1.715c0-0.497-0.18-0.699-0.666-0.757l0.044-0.248c0.069,0.011,0.125,0.011,0.158,0.011
		c0.418,0,0.825,0.011,1.242,0.011c0.655,0,1.084-0.011,1.274-0.011c0.034,0,0.103,0,0.182-0.011l-0.045,0.248
		c-0.35,0.023-0.543,0.114-0.711,0.338c-0.282,0.362-0.44,0.848-0.858,3.025l-0.146,0.757c-0.182,0.925-0.248,1.24-0.306,1.658
		c-0.021,0.136-0.032,0.281-0.032,0.35c0,0.44,0.226,0.576,0.947,0.576c1.275,0,1.75-0.26,2.168-1.186l0.304,0.113
		C254.305,56.066,254.047,56.642,253.911,56.822z"/>
	<path fill="#231F20" d="M257.261,51.326c-0.35,0-0.575-0.213-0.575-0.542c0-0.407,0.294-0.688,0.7-0.688
		c0.339,0,0.553,0.203,0.553,0.53C257.938,51.034,257.656,51.326,257.261,51.326z M256.031,57.093c-0.226,0-0.372-0.125-0.372-0.328
		c0-0.102,0.033-0.283,0.09-0.531c0.147-0.598,0.35-1.41,0.463-1.838c0.158-0.586,0.227-0.994,0.227-1.151
		c0-0.148-0.068-0.215-0.193-0.215c-0.101,0-0.202,0.035-0.439,0.102l-0.079,0.022l-0.034-0.316
		c0.622-0.237,1.229-0.384,1.536-0.384c0.169,0,0.237,0.056,0.237,0.192c0,0.135-0.059,0.496-0.261,1.286l-0.17,0.666
		c-0.28,1.096-0.35,1.479-0.35,1.659c0,0.169,0.091,0.271,0.26,0.271c0.103,0,0.305-0.046,0.62-0.159l0.023,0.317
		C256.991,56.923,256.348,57.093,256.031,57.093z"/>
	<path fill="#231F20" d="M262.247,56.563c-0.439,0.383-0.959,0.542-1.762,0.542c-0.879,0-1.41-0.147-1.41-0.374
		c0-0.089,0.013-0.202,0.125-0.677l0.587-2.561c0.191-0.825,0.338-1.479,0.542-2.403c0.113-0.541,0.156-0.835,0.156-0.982
		c0-0.135-0.065-0.213-0.19-0.213c-0.077,0-0.328,0.056-0.495,0.112l-0.013-0.327l0.135-0.045c0.611-0.203,1.117-0.316,1.354-0.316
		c0.146,0,0.236,0.067,0.236,0.192c0,0.124-0.056,0.406-0.247,1.241l-0.339,1.49c-0.112,0.484-0.147,0.665-0.182,0.824
		c0.712-0.418,1.333-0.61,1.897-0.61c0.688,0,1.027,0.35,1.027,1.061C263.67,54.565,263.071,55.852,262.247,56.563z M262.236,52.94
		c-0.205,0-0.451,0.079-0.768,0.248c-0.328,0.171-0.565,0.35-0.689,0.518c-0.146,0.205-0.271,0.555-0.439,1.299
		c-0.17,0.699-0.248,1.139-0.248,1.297c0,0.214,0.248,0.339,0.7,0.339c0.462,0,0.857-0.214,1.151-0.632
		c0.45-0.643,0.79-1.671,0.79-2.404C262.733,53.177,262.563,52.94,262.236,52.94z"/>
	<path fill="#231F20" d="M266.129,55.163c-0.078,0-0.181,0-0.328-0.011c-0.034,0.203-0.044,0.373-0.044,0.543
		c0,0.575,0.203,0.879,0.598,0.879c0.36,0,0.813-0.191,1.479-0.609l0.123,0.383c-0.836,0.519-1.467,0.756-2.043,0.756
		c-0.699,0-1.083-0.417-1.083-1.174c0-1.862,1.264-3.476,2.719-3.476c0.71,0,1.13,0.327,1.13,0.891
		C268.68,54.384,267.574,55.163,266.129,55.163z M267.291,52.906c-0.542,0-1.117,0.745-1.398,1.84h0.112
		c1.05,0,1.838-0.552,1.838-1.275C267.843,53.155,267.596,52.906,267.291,52.906z"/>
	<path fill="#231F20" d="M273.205,53.911l-0.374-0.034c0.023-0.135,0.034-0.293,0.034-0.44c0-0.203-0.179-0.35-0.462-0.35
		c-0.17,0-0.34,0.101-0.485,0.272c-0.43,0.484-0.598,1.251-0.848,2.505l-0.214,1.094c-0.428,0.022-0.54,0.034-0.98,0.09
		c0.112-0.429,0.192-0.767,0.282-1.15l0.248-1.049c0.168-0.712,0.246-1.151,0.246-1.389c0-0.282-0.065-0.407-0.203-0.407
		c-0.065,0-0.168,0.023-0.28,0.057l-0.282,0.091l-0.033-0.339c0.553-0.225,1.185-0.406,1.467-0.406c0.112,0,0.181,0.045,0.203,0.158
		c0.033,0.136,0.057,0.293,0.067,0.484c0.509-0.416,0.959-0.653,1.274-0.653c0.214,0,0.485,0.112,0.745,0.305
		C273.431,53.155,273.295,53.527,273.205,53.911z"/>
	<path fill="#231F20" d="M277.029,53.143l-0.938-0.022l-0.473,2.313c-0.125,0.598-0.134,0.768-0.134,0.858
		c0,0.158,0.078,0.249,0.225,0.249c0.079,0,0.248-0.045,0.52-0.125l0.113-0.033l0.033,0.326c-0.587,0.237-1.197,0.396-1.524,0.396
		c-0.237,0-0.383-0.113-0.383-0.328c0-0.191,0.045-0.474,0.135-0.824c0.101-0.396,0.182-0.722,0.271-1.162l0.35-1.67l-0.6,0.011
		l0.079-0.362c0.768-0.134,1.027-0.743,1.243-1.399l0.54-0.112l-0.281,1.332l0.937-0.011L277.029,53.143z"/>
	<path fill="#231F20" d="M280.493,51.756l-0.36-0.294l1.378-1.557l1.014,0.249L280.493,51.756z M279.241,55.163
		c-0.078,0-0.181,0-0.328-0.011c-0.033,0.203-0.046,0.373-0.046,0.543c0,0.575,0.204,0.879,0.6,0.879
		c0.36,0,0.813-0.191,1.478-0.609l0.123,0.383c-0.834,0.519-1.467,0.756-2.041,0.756c-0.699,0-1.083-0.417-1.083-1.174
		c0-1.862,1.264-3.476,2.719-3.476c0.711,0,1.129,0.327,1.129,0.891C281.791,54.384,280.687,55.163,279.241,55.163z M280.404,52.906
		c-0.542,0-1.119,0.745-1.401,1.84h0.113c1.05,0,1.84-0.552,1.84-1.275C280.956,53.155,280.708,52.906,280.404,52.906z"/>
	<path fill="#231F20" d="M299.883,48.686l-0.361-0.293l1.377-1.558l1.027,0.249L299.883,48.686z M302.027,51.09h-0.326
		c0.009-0.124,0.021-0.17,0.021-0.249c0-0.62-0.407-0.835-1.536-0.835c-0.371,0-0.733,0-1.104,0.035
		c-0.237,0.937-0.395,1.749-0.588,2.753c0.183,0,0.237,0,0.418,0c0.723,0,1.027-0.012,1.287-0.057
		c0.418-0.08,0.667-0.328,0.79-0.778h0.304c-0.157,0.666-0.348,1.614-0.427,2.189h-0.307c0.012-0.079,0.022-0.147,0.022-0.192
		c0-0.485-0.305-0.643-1.229-0.643c-0.554,0-0.757,0.011-0.959,0.022c-0.057,0.282,0,0.034-0.26,1.332
		c-0.124,0.632-0.171,1.028-0.171,1.23c0,0.395,0.204,0.496,0.961,0.496c1.421,0,1.861-0.227,2.302-1.196l0.28,0.112
		c-0.247,0.744-0.518,1.343-0.675,1.535c-0.115,0.124-0.261,0.158-0.734,0.158c-0.395,0-0.801-0.011-1.196-0.022
		c-0.521-0.011-1.05-0.022-1.568-0.022c-0.53,0-1.049,0.011-1.58,0.011l0.045-0.238c0.34-0.033,0.542-0.134,0.7-0.348
		c0.18-0.227,0.293-0.542,0.451-1.175c0.147-0.632,0.19-0.891,0.452-2.155l0.179-0.892c0.181-0.879,0.249-1.433,0.249-1.715
		c0-0.497-0.181-0.699-0.665-0.757l0.045-0.248h5.134C302.22,49.95,302.105,50.559,302.027,51.09z"/>
	<path fill="#231F20" d="M307.602,53.132l-0.767-0.011c0.134,0.238,0.181,0.417,0.181,0.677c0,1.038-0.87,1.839-1.998,1.839
		c-0.214,0-0.372-0.022-0.608-0.09c-0.282,0.169-0.373,0.248-0.373,0.35c0,0.124,0.124,0.18,0.62,0.337l0.902,0.282
		c0.904,0.282,1.344,0.554,1.344,1.208c0,1.195-1.186,2.133-2.696,2.133c-1.243,0-1.998-0.588-1.998-1.547
		c0-0.879,0.565-1.298,1.489-1.535c-0.563-0.203-0.688-0.294-0.688-0.485c0-0.248,0.327-0.554,1.004-0.925
		c-0.35-0.249-0.519-0.576-0.519-1.028c0-1.071,0.858-1.884,1.985-1.884c0.293,0,0.509,0.034,0.757,0.125h1.49L307.602,53.132z
		 M305.445,52.884c-0.608,0-1.105,0.643-1.105,1.411c0,0.53,0.306,0.891,0.746,0.891c0.597,0,1.083-0.621,1.083-1.388
		C306.169,53.234,305.886,52.884,305.445,52.884z M305.616,57.454c-0.383-0.147-0.848-0.305-1.321-0.44
		c-0.779,0.192-1.32,0.768-1.32,1.421c0,0.61,0.52,1.017,1.331,1.017c0.983,0,1.886-0.666,1.886-1.388
		C306.191,57.792,306.023,57.612,305.616,57.454z"/>
	<path fill="#231F20" d="M311.842,57.104c-0.202,0-0.271-0.125-0.373-0.677c-0.834,0.474-1.442,0.688-2.042,0.688
		c-0.677,0-1.07-0.35-1.07-0.971c0-0.597,0.292-1.444,0.744-2.144c0.609-0.948,1.364-1.546,2.515-1.546
		c0.51,0,0.973,0.09,1.457,0.213l-0.057,0.181c-0.406,1.298-0.699,2.731-0.699,3.216c0,0.304,0.067,0.475,0.204,0.475
		c0.089,0,0.326-0.068,0.607-0.17l0.034,0.351C312.588,56.935,312.033,57.104,311.842,57.104z M311.322,52.929
		c-0.451,0-0.902,0.338-1.286,0.971c-0.428,0.688-0.733,1.602-0.733,2.2c0,0.35,0.17,0.542,0.451,0.542
		c0.418,0,1.151-0.372,1.433-0.655c0.159-0.158,0.25-0.382,0.363-0.812c0.18-0.688,0.349-1.332,0.449-2.077
		C311.752,52.985,311.515,52.929,311.322,52.929z"/>
	<path fill="#231F20" d="M316.841,50.47c-0.372,1.5-0.744,3.17-1.105,4.762c-0.113,0.518-0.17,0.856-0.17,1.026
		c0,0.169,0.079,0.248,0.251,0.248c0.112,0,0.314-0.044,0.618-0.136l0.023,0.317c-0.576,0.225-1.275,0.417-1.58,0.417
		c-0.214,0-0.339-0.125-0.339-0.339c0-0.158,0.034-0.361,0.203-1.071c0.35-1.492,0.733-3.082,1.039-4.504
		c0.135-0.654,0.202-0.982,0.202-1.083c0-0.135-0.067-0.203-0.191-0.203c-0.113,0-0.316,0.045-0.496,0.112l-0.024-0.338
		c0.576-0.203,1.209-0.361,1.524-0.361c0.158,0,0.237,0.067,0.237,0.192C317.033,49.623,316.987,49.882,316.841,50.47z"/>
	<path fill="#231F20" d="M319.639,51.326c-0.35,0-0.575-0.213-0.575-0.542c0-0.407,0.294-0.688,0.699-0.688
		c0.338,0,0.554,0.203,0.554,0.53C320.316,51.034,320.033,51.326,319.639,51.326z M318.409,57.093c-0.229,0-0.372-0.125-0.372-0.328
		c0-0.102,0.032-0.283,0.089-0.531c0.146-0.598,0.351-1.41,0.464-1.838c0.157-0.586,0.225-0.994,0.225-1.151
		c0-0.148-0.067-0.215-0.19-0.215c-0.103,0-0.205,0.035-0.443,0.102l-0.077,0.022l-0.034-0.316c0.621-0.237,1.23-0.384,1.536-0.384
		c0.169,0,0.236,0.056,0.236,0.192c0,0.135-0.057,0.496-0.259,1.286l-0.172,0.666c-0.281,1.096-0.348,1.479-0.348,1.659
		c0,0.169,0.091,0.271,0.26,0.271c0.101,0,0.304-0.046,0.619-0.159l0.022,0.317C319.367,56.923,318.726,57.093,318.409,57.093z"/>
	<path fill="#231F20" d="M324.082,53.143l-0.937-0.022l-0.474,2.313c-0.124,0.598-0.136,0.768-0.136,0.858
		c0,0.158,0.079,0.249,0.226,0.249c0.078,0,0.249-0.045,0.519-0.125l0.112-0.033l0.034,0.326c-0.587,0.237-1.194,0.396-1.522,0.396
		c-0.238,0-0.384-0.113-0.384-0.328c0-0.191,0.044-0.474,0.136-0.824c0.101-0.396,0.181-0.722,0.27-1.162l0.35-1.67l-0.597,0.011
		l0.078-0.362c0.768-0.134,1.027-0.743,1.24-1.399l0.543-0.112l-0.281,1.332l0.937-0.011L324.082,53.143z"/>
	<path fill="#231F20" d="M327.546,51.756l-0.36-0.294l1.376-1.557l1.016,0.249L327.546,51.756z M326.294,55.163
		c-0.08,0-0.181,0-0.327-0.011c-0.034,0.203-0.046,0.373-0.046,0.543c0,0.575,0.202,0.879,0.599,0.879
		c0.361,0,0.812-0.191,1.479-0.609l0.123,0.383c-0.835,0.519-1.467,0.756-2.042,0.756c-0.699,0-1.083-0.417-1.083-1.174
		c0-1.862,1.264-3.476,2.719-3.476c0.711,0,1.127,0.327,1.127,0.891C328.842,54.384,327.737,55.163,326.294,55.163z M327.455,52.906
		c-0.541,0-1.117,0.745-1.398,1.84h0.113c1.049,0,1.839-0.552,1.839-1.275C328.009,53.155,327.761,52.906,327.455,52.906z"/>
	<path fill="#231F20" d="M348.925,51.079h-0.326c0.011-0.113,0.022-0.203,0.022-0.26c0-0.226-0.08-0.407-0.216-0.542
		c-0.214-0.203-0.607-0.281-1.467-0.281c-0.236,0-0.552,0.011-0.834,0.022c-0.204,0.925-0.383,1.816-0.586,2.777
		c0.213,0,0.428,0.011,0.644,0.011c1.251,0,1.499-0.113,1.735-0.846h0.306c-0.181,0.733-0.327,1.456-0.429,2.2h-0.316
		c0.012-0.08,0.023-0.147,0.023-0.192c0-0.191-0.079-0.373-0.215-0.474c-0.192-0.147-0.417-0.18-1.094-0.18
		c-0.361,0-0.464,0.011-0.756,0.022l-0.148,0.755c-0.215,1.084-0.293,1.592-0.293,1.908c0,0.463,0.204,0.678,0.666,0.732
		l-0.045,0.238l-0.18-0.011c-0.091,0-0.588-0.012-1.017-0.012c-0.451,0-1.287,0-1.434,0.012l-0.192,0.011l0.047-0.238
		c0.338-0.033,0.541-0.134,0.699-0.348c0.18-0.227,0.305-0.542,0.451-1.175c0.158-0.643,0.215-0.981,0.451-2.155l0.182-0.892
		c0.181-0.892,0.246-1.433,0.246-1.715c0-0.497-0.18-0.699-0.664-0.757l0.044-0.248h5.011
		C349.128,49.95,349.016,50.537,348.925,51.079z"/>
	<path fill="#231F20" d="M352.771,53.911l-0.374-0.034c0.024-0.135,0.035-0.293,0.035-0.44c0-0.203-0.18-0.35-0.463-0.35
		c-0.169,0-0.338,0.101-0.484,0.272c-0.43,0.484-0.599,1.251-0.846,2.505l-0.215,1.094c-0.43,0.022-0.543,0.034-0.982,0.09
		c0.112-0.429,0.192-0.767,0.283-1.15l0.246-1.049c0.17-0.712,0.25-1.151,0.25-1.389c0-0.282-0.067-0.407-0.203-0.407
		c-0.068,0-0.17,0.023-0.282,0.057l-0.283,0.091l-0.033-0.339c0.552-0.225,1.185-0.406,1.467-0.406c0.112,0,0.183,0.045,0.203,0.158
		c0.034,0.136,0.057,0.293,0.068,0.484c0.508-0.416,0.959-0.653,1.274-0.653c0.215,0,0.485,0.112,0.746,0.305
		C352.995,53.155,352.861,53.527,352.771,53.911z"/>
	<path fill="#231F20" d="M357.222,57.104c-0.203,0-0.271-0.125-0.371-0.677c-0.835,0.474-1.444,0.688-2.042,0.688
		c-0.678,0-1.073-0.35-1.073-0.971c0-0.597,0.294-1.444,0.743-2.144c0.611-0.948,1.366-1.546,2.518-1.546
		c0.508,0,0.972,0.09,1.456,0.213l-0.056,0.181c-0.407,1.298-0.7,2.731-0.7,3.216c0,0.304,0.068,0.475,0.203,0.475
		c0.09,0,0.327-0.068,0.609-0.17l0.033,0.351C357.968,56.935,357.415,57.104,357.222,57.104z M356.703,52.929
		c-0.451,0-0.901,0.338-1.285,0.971c-0.43,0.688-0.734,1.602-0.734,2.2c0,0.35,0.169,0.542,0.45,0.542
		c0.417,0,1.151-0.372,1.434-0.655c0.159-0.158,0.249-0.382,0.362-0.812c0.179-0.688,0.35-1.332,0.451-2.077
		C357.132,52.985,356.895,52.929,356.703,52.929z"/>
	<path fill="#231F20" d="M362.605,53.143l-0.937-0.022l-0.475,2.313c-0.124,0.598-0.136,0.768-0.136,0.858
		c0,0.158,0.079,0.249,0.227,0.249c0.079,0,0.248-0.045,0.519-0.125l0.112-0.033l0.035,0.326c-0.587,0.237-1.196,0.396-1.524,0.396
		c-0.236,0-0.383-0.113-0.383-0.328c0-0.191,0.044-0.474,0.137-0.824c0.1-0.396,0.179-0.722,0.269-1.162l0.351-1.67l-0.6,0.011
		l0.08-0.362c0.768-0.134,1.027-0.743,1.242-1.399l0.541-0.112l-0.281,1.332l0.936-0.011L362.605,53.143z"/>
	<path fill="#231F20" d="M364.816,55.163c-0.078,0-0.179,0-0.327-0.011c-0.032,0.203-0.044,0.373-0.044,0.543
		c0,0.575,0.202,0.879,0.598,0.879c0.36,0,0.812-0.191,1.478-0.609l0.124,0.383c-0.835,0.519-1.466,0.756-2.041,0.756
		c-0.699,0-1.084-0.417-1.084-1.174c0-1.862,1.263-3.476,2.719-3.476c0.712,0,1.128,0.327,1.128,0.891
		C367.366,54.384,366.262,55.163,364.816,55.163z M365.979,52.906c-0.542,0-1.117,0.745-1.4,1.84h0.112
		c1.05,0,1.841-0.552,1.841-1.275C366.532,53.155,366.283,52.906,365.979,52.906z"/>
	<path fill="#231F20" d="M371.893,53.911l-0.372-0.034c0.021-0.135,0.033-0.293,0.033-0.44c0-0.203-0.181-0.35-0.462-0.35
		c-0.17,0-0.339,0.101-0.486,0.272c-0.428,0.484-0.596,1.251-0.846,2.505l-0.215,1.094c-0.428,0.022-0.541,0.034-0.98,0.09
		c0.112-0.429,0.19-0.767,0.281-1.15l0.249-1.049c0.168-0.712,0.247-1.151,0.247-1.389c0-0.282-0.067-0.407-0.203-0.407
		c-0.067,0-0.169,0.023-0.281,0.057l-0.283,0.091l-0.033-0.339c0.554-0.225,1.185-0.406,1.469-0.406
		c0.111,0,0.178,0.045,0.202,0.158c0.033,0.136,0.057,0.293,0.066,0.484c0.509-0.416,0.961-0.653,1.275-0.653
		c0.214,0,0.485,0.112,0.745,0.305C372.119,53.155,371.982,53.527,371.893,53.911z"/>
	<path fill="#231F20" d="M376.392,57.104c-0.226,0-0.36-0.136-0.36-0.339c0-0.136,0.045-0.383,0.182-0.948l0.112-0.473
		c0.337-1.412,0.416-1.885,0.416-2.077c0-0.17-0.079-0.26-0.237-0.26c-0.19,0-0.507,0.114-0.845,0.316
		c-0.361,0.203-0.632,0.44-0.769,0.643c-0.101,0.169-0.18,0.462-0.315,1.061c-0.181,0.824-0.294,1.388-0.384,1.918
		c-0.439,0.034-0.553,0.046-0.992,0.102c0.225-0.846,0.396-1.545,0.563-2.323c0.171-0.769,0.238-1.13,0.238-1.333
		c0-0.258-0.078-0.383-0.248-0.383c-0.091,0-0.282,0.045-0.553,0.136l-0.022-0.316c0.542-0.214,1.127-0.372,1.398-0.372
		c0.25,0,0.328,0.147,0.328,0.677v0.09c0.857-0.485,1.737-0.768,2.348-0.768c0.371,0,0.518,0.09,0.518,0.315
		c0,0.237-0.067,0.61-0.304,1.524c-0.135,0.518-0.26,1.072-0.306,1.32c-0.066,0.327-0.102,0.529-0.102,0.654
		c0,0.169,0.091,0.259,0.249,0.259c0.102,0,0.315-0.046,0.586-0.146l0.035,0.326C377.33,56.923,376.652,57.104,376.392,57.104z"/>
	<path fill="#231F20" d="M381.143,51.326c-0.351,0-0.576-0.213-0.576-0.542c0-0.407,0.294-0.688,0.7-0.688
		c0.339,0,0.554,0.203,0.554,0.53C381.82,51.034,381.538,51.326,381.143,51.326z M379.911,57.093c-0.226,0-0.371-0.125-0.371-0.328
		c0-0.102,0.032-0.283,0.09-0.531c0.147-0.598,0.35-1.41,0.462-1.838c0.159-0.586,0.227-0.994,0.227-1.151
		c0-0.148-0.067-0.215-0.191-0.215c-0.103,0-0.203,0.035-0.441,0.102l-0.078,0.022l-0.035-0.316
		c0.623-0.237,1.231-0.384,1.537-0.384c0.168,0,0.235,0.056,0.235,0.192c0,0.135-0.056,0.496-0.259,1.286l-0.17,0.666
		c-0.281,1.096-0.35,1.479-0.35,1.659c0,0.169,0.092,0.271,0.26,0.271c0.102,0,0.305-0.046,0.621-0.159l0.022,0.317
		C380.872,56.923,380.228,57.093,379.911,57.093z"/>
	<path fill="#231F20" d="M385.585,53.143l-0.936-0.022l-0.474,2.313c-0.124,0.598-0.136,0.768-0.136,0.858
		c0,0.158,0.078,0.249,0.224,0.249c0.081,0,0.25-0.045,0.521-0.125l0.113-0.033l0.034,0.326c-0.587,0.237-1.197,0.396-1.523,0.396
		c-0.236,0-0.383-0.113-0.383-0.328c0-0.191,0.044-0.474,0.133-0.824c0.104-0.396,0.182-0.722,0.271-1.162l0.351-1.67l-0.599,0.011
		l0.08-0.362c0.766-0.134,1.026-0.743,1.24-1.399l0.542-0.112l-0.281,1.332l0.935-0.011L385.585,53.143z"/>
	<path fill="#231F20" d="M389.049,51.756l-0.36-0.294l1.378-1.557l1.015,0.249L389.049,51.756z M387.798,55.163
		c-0.08,0-0.182,0-0.327-0.011c-0.034,0.203-0.046,0.373-0.046,0.543c0,0.575,0.204,0.879,0.599,0.879
		c0.361,0,0.813-0.191,1.478-0.609l0.125,0.383c-0.835,0.519-1.468,0.756-2.043,0.756c-0.7,0-1.083-0.417-1.083-1.174
		c0-1.862,1.264-3.476,2.721-3.476c0.709,0,1.126,0.327,1.126,0.891C390.347,54.384,389.242,55.163,387.798,55.163z M388.959,52.906
		c-0.54,0-1.117,0.745-1.398,1.84h0.113c1.05,0,1.838-0.552,1.838-1.275C389.512,53.155,389.265,52.906,388.959,52.906z"/>
	<circle fill="#231F20" cx="336.138" cy="53.633" r="1.369"/>
	<circle fill="#231F20" cx="289.117" cy="53.633" r="1.369"/>
	<line fill="none" stroke="#000000" stroke-width="2" x1="249.68" y1="62.08" x2="390.425" y2="62.08"/>
</g>
<rect x="211.8" opacity="0.7" fill="#1E4E9C" width="43.9" height="40.762"/>
<rect x="376.888" y="0.092" opacity="0.7" fill="#EA2D2E" width="46.712" height="40.67"/>
<rect x="211.545" y="88.667" opacity="0.5" fill="#402FAD" width="211.8" height="11.667"/>
<text transform="matrix(1 0 0 1 220.4688 97.5869)" fill="#FFFFFF" font-family="'MyriadPro-Regular'" font-size="8.3202">“VOTER EST UN DROIT, C’EST AUSSI UN DEVOIR CIVIQUE”</text>
<text transform="matrix(1 0 0 1 285.7715 148.9321)"><tspan x="0" y="0" opacity="0.5" fill="#4232B5" font-family="'MyriadPro-Regular'" font-size="21.8966">CARTE</tspan><tspan x="-28.652" y="26.275" opacity="0.5" fill="#4232B5" font-family="'MyriadPro-Regular'" font-size="21.8966">ELECTORALE</tspan></text>
<g>
	
		<text transform="matrix(1 0 0 1 255.7168 264.4165)" opacity="0.5" fill="#44399F" font-family="'MyriadPro-Regular'" font-size="12">MINISTERE DE L’INTERIEUR</text>
</g>
</svg>
