<?xml version="1.0" encoding="utf-8"?>
<!-- Generator: Adobe Illustrator 16.0.0, SVG Export Plug-In . SVG Version: 6.00 Build 0)  -->
<!DOCTYPE svg PUBLIC "-//W3C//DTD SVG 1.1//EN" "http://www.w3.org/Graphics/SVG/1.1/DTD/svg11.dtd">
<svg version="1.1" id="Layer_1" xmlns="http://www.w3.org/2000/svg" xmlns:xlink="http://www.w3.org/1999/xlink" x="0px" y="0px"
	 width="20.943px" height="19.011px" viewBox="0 0 20.943 19.011" enable-background="new 0 0 20.943 19.011" xml:space="preserve">
<path fill="#C0392B" d="M10.472,0.081c0,0-6.478,5.592-10.099,8.621C0.162,8.895,0,9.176,0,9.506c0,0.578,0.468,1.047,1.048,1.047
	h2.094v7.33c0,0.578,0.467,1.047,1.046,1.047H7.33c0.58,0,1.047-0.469,1.047-1.047v-4.188h4.189v4.188
	c0,0.578,0.469,1.047,1.047,1.047h3.143c0.578,0,1.047-0.469,1.047-1.047v-7.33h2.094c0.578,0,1.047-0.469,1.047-1.047
	c0-0.332-0.16-0.611-0.4-0.805C16.948,5.673,10.472,0.081,10.472,0.081z"/>
</svg>
